<svg width="16" height="16" viewBox="0 0 16 16" fill="none" xmlns="http://www.w3.org/2000/svg">
<g clip-path="url(#clip0_195_5656)">
<path d="M7.37752 0.255736L1.59923 6.0339C1.43429 6.19884 1.34375 6.41868 1.34375 6.65308C1.34375 6.88775 1.43442 7.10745 1.59923 7.2724L2.12397 7.79701C2.28865 7.96182 2.50862 8.05262 2.74315 8.05262C2.97756 8.05262 3.20494 7.96182 3.36962 7.79701L6.74793 4.42611L6.74793 15.1356C6.74793 15.6185 7.12595 16 7.60894 16L8.35078 16C8.83377 16 9.2499 15.6185 9.2499 15.1356L9.2499 4.38787L12.6471 7.79688C12.812 7.96169 13.026 8.05249 13.2605 8.05249C13.4948 8.05249 13.7119 7.96169 13.8767 7.79688L14.3998 7.27226C14.5647 7.10732 14.6546 6.88762 14.6546 6.65295C14.6546 6.41855 14.5635 6.19871 14.3986 6.03377L8.62044 0.255606C8.45498 0.0902738 8.2341 -0.000651816 7.99931 -1.40468e-06C7.76373 -0.000521715 7.54272 0.0902738 7.37752 0.255736Z" fill="#151618"/>
</g>
<defs>
<clipPath id="clip0_195_5656">
<rect width="16" height="16" fill="white" transform="translate(0 16) rotate(-90)"/>
</clipPath>
</defs>
</svg>
