<svg width="22" height="23" viewBox="0 0 22 23" fill="none" xmlns="http://www.w3.org/2000/svg">
<g clip-path="url(#clip0_104_2516)">
<path d="M15.4202 17.7452L19.8183 22.1443C20.0585 22.3716 20.3775 22.5 20.7093 22.5C21.417 22.499 21.9991 21.916 21.9991 21.2084C21.9991 20.8775 21.8717 20.5585 21.6443 20.3183L17.2452 15.921C20.1162 12.1554 19.8321 6.74979 16.3946 3.31137L16.3882 3.30496L16.1333 3.05012C16.0977 3.01274 16.0577 2.97981 16.0142 2.95204C12.2467 -0.432293 6.43592 -0.314043 2.8105 3.31137C-0.936833 7.05962 -0.936833 13.1463 2.8105 16.8927C6.24983 20.332 11.6563 20.6171 15.4202 17.7452ZM14.5356 5.16946C17.2397 7.87637 17.2397 12.3286 14.5356 15.0355C11.8287 17.7388 7.37733 17.7388 4.67042 15.0355C1.96533 12.3286 1.96533 7.87637 4.67042 5.16946C7.37733 2.46529 11.8287 2.46529 14.5356 5.16946Z" fill="white"/>
</g>
<defs>
<clipPath id="clip0_104_2516">
<rect width="22" height="22" fill="white" transform="translate(0 0.5)"/>
</clipPath>
</defs>
</svg>
