<svg width="32" height="33" viewBox="0 0 32 33" fill="none" xmlns="http://www.w3.org/2000/svg">
<path fill-rule="evenodd" clip-rule="evenodd" d="M24.887 17.927C24.202 22.217 20.482 25.5 16 25.5C11.033 25.5 7 21.467 7 16.5C7 12.018 10.283 8.298 14.573 7.613C15.038 7.539 15.514 7.5 16 7.5C20.967 7.5 25 11.533 25 16.5C25 16.986 24.961 17.462 24.887 17.927ZM12.027 10.737C10.199 12.001 9 14.112 9 16.5C9 20.363 12.137 23.5 16 23.5C18.388 23.5 20.498 22.302 21.761 20.475C20.907 20.814 19.975 21 19 21C14.861 21 11.5 17.639 11.5 13.5C11.5 12.525 11.686 11.594 12.027 10.737ZM15 3.5C15 2.948 15.448 2.5 16 2.5C16.552 2.5 17 2.948 17 3.5V5.5C17 6.052 16.552 6.5 16 6.5C15.448 6.5 15 6.052 15 5.5V3.5ZM24.485 6.601C24.876 6.21 25.509 6.21 25.899 6.601C26.29 6.991 26.29 7.624 25.899 8.015L24.485 9.429C24.095 9.819 23.461 9.819 23.071 9.429C22.681 9.039 22.681 8.405 23.071 8.015L24.485 6.601ZM29 15.5C29.552 15.5 30 15.948 30 16.5C30 17.052 29.552 17.5 29 17.5H27C26.448 17.5 26 17.052 26 16.5C26 15.948 26.448 15.5 27 15.5H29ZM25.899 24.985C26.29 25.376 26.29 26.009 25.899 26.399C25.509 26.79 24.876 26.79 24.485 26.399L23.071 24.985C22.681 24.595 22.681 23.961 23.071 23.571C23.461 23.181 24.095 23.181 24.485 23.571L25.899 24.985ZM17 29.5C17 30.052 16.552 30.5 16 30.5C15.448 30.5 15 30.052 15 29.5V27.5C15 26.948 15.448 26.5 16 26.5C16.552 26.5 17 26.948 17 27.5V29.5ZM7.515 26.399C7.124 26.79 6.491 26.79 6.101 26.399C5.71 26.009 5.71 25.376 6.101 24.985L7.515 23.571C7.905 23.181 8.539 23.181 8.929 23.571C9.319 23.961 9.319 24.595 8.929 24.985L7.515 26.399ZM3 17.5C2.448 17.5 2 17.052 2 16.5C2 15.948 2.448 15.5 3 15.5H5C5.552 15.5 6 15.948 6 16.5C6 17.052 5.552 17.5 5 17.5H3ZM6.101 8.015C5.71 7.624 5.71 6.991 6.101 6.601C6.491 6.21 7.124 6.21 7.515 6.601L8.929 8.015C9.319 8.405 9.319 9.039 8.929 9.429C8.539 9.819 7.905 9.819 7.515 9.429L6.101 8.015Z" fill="#151618"/>
</svg>
