<svg width="115" height="25" viewBox="0 0 115 25" fill="none" xmlns="http://www.w3.org/2000/svg">
<path d="M95.0664 9.93229C95.0664 8.19896 95.4997 6.58785 96.3664 5.09896C97.2331 3.61007 98.3997 2.43229 99.8664 1.56562C101.355 0.698958 102.978 0.265625 104.733 0.265625C106.489 0.265625 108.1 0.698958 109.566 1.56562C111.055 2.43229 112.233 3.61007 113.1 5.09896C113.966 6.58785 114.4 8.19896 114.4 9.93229V15.0656C114.4 16.799 113.966 18.4101 113.1 19.899C112.233 21.3878 111.055 22.5656 109.566 23.4323C108.1 24.299 106.489 24.7323 104.733 24.7323C102.978 24.7323 101.355 24.299 99.8664 23.4323C98.3997 22.5656 97.2331 21.3878 96.3664 19.899C95.4997 18.4101 95.0664 16.799 95.0664 15.0656V9.93229ZM101.133 15.0656C101.133 16.1323 101.466 17.0434 102.133 17.799C102.8 18.5545 103.666 18.9323 104.733 18.9323C105.778 18.9323 106.633 18.5545 107.3 17.799C107.966 17.0434 108.3 16.1323 108.3 15.0656V9.89896C108.3 8.81007 107.966 7.89896 107.3 7.16563C106.633 6.43229 105.778 6.06563 104.733 6.06563C103.666 6.06563 102.8 6.43229 102.133 7.16563C101.466 7.89896 101.133 8.81007 101.133 9.89896V15.0656Z" fill="white"/>
<path d="M80.7578 10.5651L90.4245 24.0984H71.7578V0.898438H90.4245L80.7578 10.5651ZM79.8912 11.4318L72.9911 18.3318V22.8651H88.0578L79.8912 11.4318Z" fill="white"/>
<path d="M47.7812 0.898438H64.6813V6.7651H53.8479V9.69844H62.8479V15.2651H53.8479V18.2318H64.6813V24.0984H47.7812V0.898438Z" fill="white"/>
<path d="M23.4727 24.0984V0.898438H32.106C33.7949 0.898438 35.3504 1.32066 36.7727 2.1651C38.2171 3.00955 39.3615 4.15399 40.206 5.59844C41.0504 7.02066 41.4727 8.57622 41.4727 10.2651V14.7318C41.4727 16.4207 41.0504 17.9873 40.206 19.4318C39.3615 20.854 38.2171 21.9873 36.7727 22.8318C35.3504 23.6762 33.7949 24.0984 32.106 24.0984H23.4727Z" fill="white"/>
<path d="M0 6.7651V0.898438H15V6.7651H8.1V18.2318H15V24.0984H0V18.2318H6.9V6.7651H0Z" fill="white"/>
</svg>
