<svg width="116" height="25" viewBox="0 0 116 25" fill="none" xmlns="http://www.w3.org/2000/svg">
<path d="M95.8984 10.2018C95.8984 8.46849 96.3318 6.85738 97.1984 5.36849C98.0651 3.8796 99.2318 2.70182 100.698 1.83516C102.187 0.968489 103.81 0.535156 105.565 0.535156C107.321 0.535156 108.932 0.968489 110.398 1.83516C111.887 2.70182 113.065 3.8796 113.932 5.36849C114.798 6.85738 115.232 8.46849 115.232 10.2018V15.3352C115.232 17.0685 114.798 18.6796 113.932 20.1685C113.065 21.6574 111.887 22.8352 110.398 23.7018C108.932 24.5685 107.321 25.0018 105.565 25.0018C103.81 25.0018 102.187 24.5685 100.698 23.7018C99.2318 22.8352 98.0651 21.6574 97.1984 20.1685C96.3318 18.6796 95.8984 17.0685 95.8984 15.3352V10.2018ZM101.965 15.3352C101.965 16.4018 102.298 17.3129 102.965 18.0685C103.632 18.824 104.498 19.2018 105.565 19.2018C106.61 19.2018 107.465 18.824 108.132 18.0685C108.798 17.3129 109.132 16.4018 109.132 15.3352V10.1685C109.132 9.0796 108.798 8.16849 108.132 7.43516C107.465 6.70182 106.61 6.33516 105.565 6.33516C104.498 6.33516 103.632 6.70182 102.965 7.43516C102.298 8.16849 101.965 9.0796 101.965 10.1685V15.3352Z" fill="black"/>
<path d="M81.5898 10.8346L91.2565 24.368H72.5898V1.16797H91.2565L81.5898 10.8346ZM80.7232 11.7013L73.8232 18.6013V23.1346H88.8898L80.7232 11.7013Z" fill="black"/>
<path d="M48.6133 1.16797H65.5133V7.03464H54.6799V9.96797H63.6799V15.5346H54.6799V18.5013H65.5133V24.368H48.6133V1.16797Z" fill="black"/>
<path d="M24.3047 24.368V1.16797H32.938C34.6269 1.16797 36.1825 1.59019 37.6047 2.43464C39.0491 3.27908 40.1936 4.42353 41.038 5.86797C41.8825 7.29019 42.3047 8.84575 42.3047 10.5346V15.0013C42.3047 16.6902 41.8825 18.2569 41.038 19.7013C40.1936 21.1235 39.0491 22.2569 37.6047 23.1013C36.1825 23.9457 34.6269 24.368 32.938 24.368H24.3047Z" fill="black"/>
<path d="M0.832031 7.03464V1.16797H15.832V7.03464H8.93203V18.5013H15.832V24.368H0.832031V18.5013H7.73203V7.03464H0.832031Z" fill="black"/>
</svg>
